# xmcd
#
# Track frame offsets:
#   150
#   16935
#   34218
#   50160
#   62043
#   75158
#   94786
#   108426
#   122809
#   132688
#   143296
#   159699
#   171206
#   188108
#   201278
#   212085
#   247030
#
# Disc length: 3301 seconds
#
# Revision: 0
# Processed by: cddbd v1.5.1PL2 Copyright (c) Steve Scherf et al.
# Submitted via: GXTranscoder 2.0.1939
#
DISCID=f10ce311
DTITLE=Johnny Cash - Unearthed Disc Two
DYEAR=1900
DGENRE=Country
TTITLE0=01-Pocahontas
TTITLE1=02-I'm a driver
TTITLE2=03-Trouble in mind
TTITLE3=04-Down the Line
TTITLE4=05-I'm movin'on
TTITLE5=06-As Long As the Grass shall grow
TTITLE6=07-Heart of Gold
TTITLE7=08-The Running Kind
TTITLE8=09-Everybody's trying to be my baby
TTITLE9=10-Brown Eyed Handsome Man
TTITLE10=11-T For Texas
TTITLE11=12-Devil's Right Hand
TTITLE12=13-I'm a Driver Version 2
TTITLE13=14-Like a soldier
TTITLE14=15-Drive on
TTITLE15=16-Bird on a wire
TTITLE16=17
EXTD=
EXTT0=
EXTT1=
EXTT2=
EXTT3=
EXTT4=
EXTT5=
EXTT6=
EXTT7=
EXTT8=
EXTT9=
EXTT10=
EXTT11=
EXTT12=
EXTT13=
EXTT14=
EXTT15=
EXTT16=
PLAYORDER=
